<?xml version="1.0" standalone="no"?>
<!DOCTYPE svg PUBLIC "-//W3C//DTD SVG 20010904//EN"
 "http://www.w3.org/TR/2001/REC-SVG-20010904/DTD/svg10.dtd">
<svg version="1.0" xmlns="http://www.w3.org/2000/svg"
 width="512.000000pt" height="512.000000pt" viewBox="0 0 512.000000 512.000000"
 preserveAspectRatio="xMidYMid meet">

<g transform="translate(0.000000,512.000000) scale(0.100000,-0.100000)"
fill="#000000" stroke="none">
<path d="M400 3563 c0 -40 -146 -3000 -153 -3101 l-5 -62 959 0 c761 0 959 3
959 13 0 27 150 1985 156 2025 l5 42 264 0 264 0 4 23 4 22 2 -22 1 -23 315 0
315 0 0 43 c0 23 -11 260 -25 527 -14 267 -25 500 -25 518 l0 32 -520 0 -520
0 0 -175 c0 -173 0 -176 -25 -200 -15 -16 -36 -25 -55 -25 -19 0 -40 9 -55 25
-25 24 -25 27 -25 200 l0 175 -560 0 -560 0 0 -345 0 -345 80 -52 80 -53 0
-322 0 -323 -240 0 -240 0 0 323 0 322 80 53 80 52 0 345 0 345 -280 0 -280 0
0 -37z m2427 -495 c-2 -13 -4 -5 -4 17 -1 22 1 32 4 23 2 -10 2 -28 0 -40z
m10 -200 c-2 -13 -4 -5 -4 17 -1 22 1 32 4 23 2 -10 2 -28 0 -40z m10 -200
c-2 -13 -4 -5 -4 17 -1 22 1 32 4 23 2 -10 2 -28 0 -40z"/>
</g>
</svg>
